<?xml version="1.0" standalone="no"?>
<!DOCTYPE svg PUBLIC "-//W3C//DTD SVG 20010904//EN"
 "http://www.w3.org/TR/2001/REC-SVG-20010904/DTD/svg10.dtd">
<svg version="1.0" xmlns="http://www.w3.org/2000/svg"
 width="612.000000pt" height="612.000000pt" viewBox="0 0 612.000000 612.000000"
 preserveAspectRatio="xMidYMid meet">

<g transform="translate(0.000000,612.000000) scale(0.100000,-0.100000)"
fill="#000000" stroke="none">
<path d="M3182 4220 c-12 -5 -27 -21 -34 -35 -13 -30 -6 -29 -103 -9 -136 28
-154 -1 -84 -139 56 -112 115 -199 205 -301 l75 -87 -23 -19 c-13 -11 -32 -18
-43 -16 -155 33 -486 41 -655 17 -136 -19 -313 -64 -441 -112 l-110 -42 -82
26 c-163 51 -200 59 -245 54 -141 -16 -112 -185 75 -439 l44 -60 -41 -71
c-164 -281 -170 -293 -195 -387 -54 -205 -72 -469 -40 -577 19 -63 62 -103
110 -103 18 0 50 -7 70 -16 58 -24 99 -12 160 49 92 93 145 234 145 389 0 87
0 88 28 94 248 55 442 142 632 282 14 10 23 10 43 1 21 -9 49 -7 154 14 203
42 263 48 515 54 371 9 656 -26 908 -112 139 -47 252 -26 332 63 39 43 53 88
46 149 -3 21 1 49 9 63 17 33 16 94 -2 130 -26 51 -149 100 -423 170 l-43 11
67 67 c84 83 109 135 100 208 -9 77 -40 152 -95 231 -112 160 -283 252 -469
255 l-87 1 -55 49 c-118 105 -357 184 -448 148z m-20 -174 c101 -30 214 -80
293 -131 62 -40 65 -40 165 -11 30 9 92 16 136 16 199 0 359 -104 448 -290 21
-44 31 -80 31 -112 0 -45 -3 -51 -64 -112 -103 -104 -199 -144 -401 -166 -52
-6 -99 -15 -104 -21 -6 -6 -5 -9 5 -9 23 0 405 -108 532 -151 149 -50 241 -94
289 -140 44 -41 49 -73 17 -113 -53 -67 -112 -71 -299 -17 -246 71 -482 101
-796 101 -219 0 -330 -9 -517 -41 -65 -12 -120 -19 -122 -17 -3 2 1 35 7 73
10 68 6 163 -7 186 -4 6 -16 -14 -27 -46 -76 -225 -304 -385 -700 -490 -155
-41 -240 -45 -305 -15 -24 10 -43 17 -43 14 0 -2 11 -26 24 -52 56 -111 53
-224 -11 -344 -41 -78 -108 -147 -127 -128 -16 16 -20 217 -6 326 28 225 85
375 216 570 41 61 74 120 74 132 0 11 -34 68 -75 127 -74 105 -145 234 -145
262 0 9 6 12 18 9 19 -6 256 -75 284 -83 10 -3 64 13 120 36 286 113 595 159
893 132 71 -7 131 -14 133 -15 1 -2 -9 -27 -23 -57 -37 -80 -31 -89 23 -37 26
26 85 70 131 98 l83 52 72 -37 c48 -24 91 -38 131 -42 33 -3 58 -3 55 0 -3 3
-41 32 -85 64 -131 98 -288 270 -379 416 -25 41 -46 77 -46 80 0 11 12 9 102
-17z"/>
</g>
</svg>
